<?xml version="1.0" standalone="no"?>
<!DOCTYPE svg PUBLIC "-//W3C//DTD SVG 20010904//EN"
 "http://www.w3.org/TR/2001/REC-SVG-20010904/DTD/svg10.dtd">
<svg version="1.0" xmlns="http://www.w3.org/2000/svg"
 width="700.000000pt" height="700.000000pt" viewBox="0 0 700.000000 700.000000"
 preserveAspectRatio="xMidYMid meet">
<metadata>
Created by potrace 1.14, written by Peter Selinger 2001-2017
</metadata>
<g transform="translate(0.000000,700.000000) scale(0.100000,-0.100000)"
fill="#000000" stroke="none">
<path d="M3387 6064 c-1 -1 -42 -5 -92 -8 -101 -8 -126 -11 -240 -31 -136 -24
-125 -22 -303 -70 -158 -44 -418 -160 -582 -259 -95 -58 -259 -175 -335 -238
-47 -40 -238 -229 -281 -278 -66 -77 -244 -322 -244 -336 0 -2 -12 -23 -27
-47 -137 -216 -283 -625 -319 -893 -3 -27 -8 -51 -9 -54 -7 -12 -19 -213 -19
-335 -3 -979 553 -1873 1429 -2299 298 -145 561 -220 890 -254 95 -10 392 -9
485 1 244 27 486 86 698 171 820 330 1403 1040 1566 1908 33 173 41 267 41
468 0 153 -11 335 -20 350 -3 4 -7 27 -10 51 -3 24 -7 51 -10 59 -2 8 -7 31
-10 50 -13 78 -83 322 -110 385 -14 32 -27 67 -30 75 0 3 -11 28 -24 55 -13
28 -30 66 -38 85 -22 51 -139 255 -186 325 -134 198 -349 427 -547 582 -174
135 -407 268 -615 352 -102 41 -210 78 -237 81 -4 0 -26 7 -49 15 -79 28 -283
65 -449 81 -61 5 -318 12 -323 8z"/>
</g>
</svg>
