<?xml version="1.0" encoding="UTF-8"?>
<!DOCTYPE svg PUBLIC "-//W3C//DTD SVG 1.1//EN" "http://www.w3.org/Graphics/SVG/1.1/DTD/svg11.dtd">
<!-- Creator: CorelDRAW 2020 (64-Bit) -->
<svg xmlns="http://www.w3.org/2000/svg" xml:space="preserve" width="100%" height="100%" version="1.1" style="shape-rendering:geometricPrecision; text-rendering:geometricPrecision; image-rendering:optimizeQuality; fill-rule:evenodd; clip-rule:evenodd"
viewBox="0 0 10715.26 3817.87"
 xmlns:xlink="http://www.w3.org/1999/xlink"
 xmlns:xodm="http://www.corel.com/coreldraw/odm/2003">
 <defs>
  <style type="text/css">
   <![CDATA[
    .fil0 {fill:black;fill-rule:nonzero}
   ]]>
  </style>
 </defs>
 <g id="Layer_x0020_1">
  <metadata id="CorelCorpID_0Corel-Layer"/>
  <path class="fil0" d="M5047.86 3575.4l0.6 0.03 -0.6 -0.03zm5594.21 -1819.53l0.42 0.42c44.98,45.19 72.77,107.13 72.77,175.2 0,67.94 -27.67,129.77 -72.47,174.93l-0.69 0.69c-45.16,44.98 -107.13,72.77 -175.2,72.77 -67.94,0 -129.77,-27.64 -174.9,-72.47l-0.72 -0.69c-19.05,-19.14 -35.03,-41.33 -47.11,-65.69l-1332.91 0 0 1462.68c0,80.43 -32.59,153.13 -85.22,205.83 -52.66,52.66 -125.43,85.25 -205.8,85.25 -56.22,0 -110,-16.31 -155.79,-45.37 -45.52,-28.85 -83.14,-70.63 -107.28,-121.69l-731.88 -1551.79c-4.97,-10.58 -12.93,-19.35 -22.67,-25.53 -9.46,-6 -20.74,-9.37 -32.65,-9.37 -17.12,0 -32.31,6.66 -43.07,17.39l-0.42 0.42c-10.73,10.73 -17.36,25.95 -17.36,43.05l0 1346.05c0,95.68 -38.8,182.37 -101.53,245.11 -62.73,62.73 -149.4,101.53 -245.11,101.53 -69.69,0 -136.41,-21.22 -192.59,-58.81 -55.71,-37.23 -100.69,-90.76 -127.45,-155.64l-576.88 -1393.83 -694.35 1301.43c-51.91,97.25 -129.08,176.07 -220.78,229.31 -88.54,51.4 -190.81,79.1 -297.13,76.66l-5.37 0.15c-1.72,0 -1.96,-0.18 -7.15,-0.45l-7.72 -0.36c-247.97,-12.66 -473.21,-118.71 -640.24,-283.36 -167.27,-164.89 -276.67,-388.72 -292.67,-636.44 -1.54,-24.06 -2.32,-45.73 -2.32,-65.05 0,-261.2 101.86,-498.86 268.05,-675.42 156.24,-165.98 369.42,-277.75 608.41,-304.28 12.33,-26.8 29.3,-51.09 49.92,-71.87l0.69 -0.72c45.19,-44.98 107.13,-72.77 175.2,-72.77 67.94,0 129.77,27.67 174.93,72.47l0.27 0.27 0.42 0.42c44.98,45.19 72.77,107.13 72.77,175.2 0,67.94 -27.64,129.77 -72.47,174.93l-0.72 0.69c-45.16,44.98 -107.13,72.77 -175.2,72.77 -67.94,0 -129.77,-27.64 -174.9,-72.47l-0.72 -0.69c-17.36,-17.43 -32.13,-37.35 -43.77,-59.2 -178.79,24 -338.13,109.57 -455.91,234.74 -129.11,137.19 -208.24,322.19 -208.24,525.93 0,19.2 0.48,36.39 1.45,51.4 12.42,192.29 97.58,366.26 227.77,494.61 130.41,128.54 305.67,211.31 497.99,221.02l4.16 0.21c-1.27,-0.12 -2.68,-0.27 0,-0.27 4.04,0 8.02,0.24 11.94,0.66 64.54,1.15 126.91,-16.01 181.26,-47.57 57.33,-33.31 105.57,-82.48 137.88,-143.04l802.96 -1504.97c28.31,-53.09 94.29,-73.13 147.35,-44.85 23.27,12.39 40.21,32.07 49.5,54.68l665.23 1607.16c9.83,23.84 26.47,43.59 47.15,57.39 20.26,13.57 44.94,21.22 71.29,21.22 35.33,0 67.34,-14.35 90.5,-37.47 23.12,-23.15 37.44,-55.13 37.44,-90.46l0 -1346.05c0,-76.72 31.29,-146.47 81.87,-197.27l0.66 -0.63c50.8,-50.46 120.43,-81.66 197.02,-81.66 54.02,0 105.69,15.68 149.7,43.56 43.77,27.76 79.88,67.85 102.97,116.9l731.88 1551.81c5.94,12.54 15.41,22.94 27.01,30.3 11.28,7.15 24.63,11.15 38.74,11.15 20.02,0 38.1,-8.11 51.19,-21.16 13.05,-13.05 21.13,-31.17 21.13,-51.19l0 -1572.01c0,-60.41 48.96,-109.37 109.37,-109.37l1442.06 0c12.06,-24.39 27.97,-46.57 47.03,-65.74l0.69 -0.72c45.16,-44.98 107.1,-72.77 175.2,-72.77 67.92,0 129.77,27.67 174.9,72.47l0.3 0.27 -0.06 0.07zm-57.97 170.08c-1.6,-33.52 -15.46,-62.19 -36.57,-81.36l-1.78 -1.63c-21.07,-19.17 -50.94,-30.26 -84.46,-28.67 -33.49,1.6 -62.19,15.46 -81.36,36.57l-1.6 1.78c-19.17,21.07 -30.26,50.98 -28.7,84.46 1.6,33.52 15.46,62.19 36.57,81.36l1.75 1.6c21.1,19.17 50.98,30.26 84.5,28.7 33.52,-1.6 62.19,-15.46 81.36,-36.57l1.6 -1.75c19.17,-21.1 30.26,-50.94 28.7,-84.46l0 -0.03zm-4191.22 1183.63l0.42 0.42c44.98,45.16 72.77,107.1 72.77,175.2 0,67.92 -27.64,129.77 -72.47,174.9l-0.72 0.72c-45.16,44.98 -107.13,72.77 -175.2,72.77 -67.94,0 -129.77,-27.67 -174.9,-72.5l-0.72 -0.69c-44.98,-45.19 -72.77,-107.13 -72.77,-175.2 0,-67.94 27.67,-129.77 72.47,-174.93l0.69 -0.69c45.19,-44.98 107.13,-72.77 175.2,-72.77 67.94,0 129.77,27.64 174.93,72.47l0.27 0.27 0.03 0.03zm-5616.4 -1375.26c-15.83,58.03 -75.66,92.27 -133.69,76.48 -58.03,-15.83 -92.24,-75.66 -76.44,-133.69 27.43,-100.11 336.54,-1119.51 337.41,-1122.44l1.27 -4.28c52.54,-150.21 138.81,-322.04 245.02,-429.53 62.85,-63.63 134.3,-107.37 213.39,-118.17 84.92,-11.64 170.53,13.78 252.91,90.83l0 0.42c86.72,81.12 172.25,225.81 250.86,457.3 190.15,560.18 364.18,1185.83 508.6,1705.1 124.41,447.29 226.57,814.54 297.11,987.69 132.73,325.83 260.27,350.37 260.63,350.46l6 1.69c0.45,0.12 162.69,48.56 229.37,-200.61 91.22,-340.87 66.14,-847.52 66.08,-848.96 -2.59,-60.14 44.07,-111.02 104.21,-113.61 60.14,-2.62 111.02,44.04 113.61,104.21 0.09,1.57 26.86,541.94 -72.89,914.77 -115.15,430.5 -444.09,367.67 -492.44,355.95l-0.03 0.15c-0.69,-0.15 -240.13,-47.9 -416.99,-481.98 -73.8,-181.2 -177.97,-555.63 -304.79,-1011.63 -143.07,-514.48 -315.49,-1134.34 -505.19,-1693.13 -66.32,-195.4 -131.19,-310.79 -192.54,-368.25l-0.21 0.21c-29.39,-27.49 -54.32,-37.32 -75.24,-34.46 -26.71,3.65 -56.52,24.18 -86.97,54.98 -81.51,82.54 -150.81,223.1 -194.61,348.35 -21.34,70.42 -309.01,1019.52 -334.43,1112.19l0 -0.02zm435.26 416.87l-563.7 1.36 -442.65 1486.01c-16.55,55.5 -74.94,87.09 -130.44,70.57 -55.5,-16.55 -87.09,-74.97 -70.57,-130.46l487.02 -1634.93 720.24 -1.72c11.72,-25.08 27.58,-47.84 46.6,-67.4 43.92,-45.09 104.57,-73.04 171.52,-73.04 66.92,0 127.6,27.94 171.52,73.04 43.17,44.34 69.85,105.15 69.85,171.91 0,66.77 -26.71,127.57 -69.85,171.89 -43.95,45.13 -104.57,73.04 -171.52,73.04 -66.92,0 -127.57,-27.91 -171.52,-73.04 -18.99,-19.5 -34.79,-42.2 -46.54,-67.19l0.04 -0.04zm2116.73 -398.3c66.92,0 127.57,27.91 171.52,73.04 43.17,44.34 69.85,105.15 69.85,171.91 0,66.74 -26.71,127.57 -69.85,171.89 -43.95,45.13 -104.57,73.04 -171.52,73.04 -66.92,0 -127.6,-27.91 -171.52,-73.04 -43.17,-44.31 -69.85,-105.11 -69.85,-171.89 0,-66.8 26.71,-127.57 69.85,-171.91 43.92,-45.13 104.6,-73.04 171.52,-73.04zm3006.48 1526.77c-1.6,-33.49 -15.46,-62.19 -36.57,-81.36l-1.75 -1.6c-21.1,-19.17 -50.94,-30.26 -84.46,-28.7 -33.52,1.6 -62.19,15.46 -81.36,36.57l-1.6 1.75c-19.2,21.1 -30.3,50.98 -28.7,84.46 1.6,33.55 15.46,62.19 36.57,81.36l1.78 1.63c21.1,19.17 50.98,30.26 84.46,28.67 33.52,-1.6 62.19,-15.46 81.36,-36.57l1.6 -1.78c19.17,-21.1 30.26,-50.94 28.7,-84.46l-0.03 0.03zm-1017.65 -1353.7c-1.6,-33.52 -15.46,-62.19 -36.57,-81.36l-1.75 -1.63c-21.1,-19.17 -50.94,-30.26 -84.46,-28.67 -33.52,1.6 -62.19,15.46 -81.36,36.57l-1.6 1.78c-19.2,21.07 -30.3,50.98 -28.7,84.46 1.6,33.52 15.46,62.19 36.57,81.36l1.78 1.6c21.1,19.17 50.98,30.26 84.46,28.7 33.55,-1.6 62.19,-15.46 81.36,-36.57l1.6 -1.75c19.17,-21.1 30.26,-50.94 28.7,-84.46l-0.03 -0.03zm-1871.62 66.31c-1.57,-33.49 -15.46,-62.19 -36.54,-81.36l-1.78 -1.6c-21.1,-19.17 -50.94,-30.3 -84.46,-28.7 -33.49,1.6 -62.19,15.46 -81.36,36.57l-1.6 1.75c-19.17,21.1 -30.26,50.98 -28.7,84.46 1.6,33.52 15.46,62.19 36.57,81.36l1.75 1.6c21.1,19.2 50.98,30.3 84.46,28.67 33.52,-1.57 62.19,-15.46 81.36,-36.54l1.6 -1.78c19.2,-21.1 30.3,-50.94 28.67,-84.46l0.03 0.03zm-1902.37 54.26c0,-33.52 -12.51,-62.85 -32.65,-83.02l-1.69 -1.69c-20.17,-20.17 -49.44,-32.65 -83.02,-32.65 -33.52,0 -62.85,12.51 -83.02,32.65l-1.69 1.69c-20.17,20.17 -32.65,49.47 -32.65,83.02 0,33.58 12.51,62.85 32.65,83.02l1.69 1.69c20.17,20.17 49.5,32.65 83.02,32.65 33.58,0 62.85,-12.51 83.02,-32.65l1.69 -1.69c20.17,-20.17 32.65,-49.44 32.65,-83.02z"/>
 </g>
</svg>
