<svg width="42" height="42" viewBox="0 0 42 42" fill="none" xmlns="http://www.w3.org/2000/svg">
<path d="M29.814 16.2545L29.5875 16.5942L26.9539 20.5447L26.7277 20.884L27.0146 21.1738C27.4666 21.6305 27.8187 22.1761 28.0487 22.7762C28.2786 23.3762 28.3813 24.0175 28.3502 24.6593C28.3191 25.3011 28.1549 25.9294 27.8681 26.5044C27.5812 27.0794 27.178 27.5885 26.6839 27.9993C26.1899 28.4102 25.6158 28.7138 24.9981 28.891C24.3805 29.0682 23.7327 29.1151 23.096 29.0286C22.4593 28.9421 21.8475 28.7243 21.2995 28.3888C20.7514 28.0533 20.2791 27.6075 19.9125 27.0798L19.6798 26.7448L19.3049 26.9055L14.1773 29.1036L13.8023 29.2644L13.8846 29.664C14.1163 30.7892 13.922 31.9603 13.3394 32.9503C12.7567 33.9404 11.8273 34.6788 10.7311 35.0226C9.63502 35.3663 8.45031 35.2908 7.40668 34.8107C6.36305 34.3306 5.53484 33.4801 5.0826 32.4242C4.63036 31.3682 4.5863 30.1819 4.95897 29.0952C5.33164 28.0086 6.09449 27.0991 7.09963 26.5429C8.10478 25.9867 9.28062 25.8235 10.3992 26.085C11.5178 26.3465 12.4995 27.014 13.154 27.9581L13.3865 28.2935L13.7617 28.1328L18.8893 25.9368L19.265 25.7759L19.1821 25.3757C19.0116 24.5528 19.0681 23.699 19.3454 22.9056C19.6228 22.1123 20.1106 21.4092 20.7567 20.8717C21.4027 20.3342 22.1828 19.9825 23.0133 19.8541C23.8439 19.7257 24.6937 19.8255 25.4719 20.1428L25.8501 20.297L26.0767 19.9573L28.7103 16.0089L28.9369 15.6692L28.6494 15.3793C28.1131 14.8387 27.7183 14.1742 27.4998 13.4447C27.2814 12.7152 27.246 11.9431 27.3968 11.1967C27.5476 10.4502 27.88 9.75244 28.3646 9.16498L27.9887 8.8549L28.3646 9.16498C28.8492 8.57752 29.471 8.11848 30.1751 7.82843L29.9847 7.36612L30.1751 7.82843C30.8792 7.53838 31.644 7.42626 32.4017 7.50197C33.1594 7.57769 33.8869 7.8389 34.5197 8.26254C35.1525 8.68617 35.6712 9.25917 36.0299 9.93089C36.3887 10.6026 36.5764 11.3524 36.5766 12.1139C36.5768 12.8741 36.3901 13.6226 36.0329 14.2936C35.6757 14.9646 35.159 15.5374 34.5282 15.9617C33.8975 16.386 33.1721 16.6486 32.416 16.7265C31.6599 16.8045 30.8962 16.6953 30.1922 16.4085L29.814 16.2545Z" stroke="#D9D9D9"/>
</svg>
