<svg width="367" height="367" viewBox="0 0 367 367" fill="none" xmlns="http://www.w3.org/2000/svg">
<circle cx="183.047" cy="183.047" r="134" transform="rotate(30 183.047 183.047)" fill="#FFD29E"/>
<mask id="mask0_103_99" style="mask-type:alpha" maskUnits="userSpaceOnUse" x="49" y="49" width="269" height="269">
<path d="M308.966 228.878C283.654 298.421 206.759 334.278 137.216 308.966C67.6734 283.655 31.8167 206.76 57.1283 137.217C82.4399 67.6736 159.335 31.817 228.878 57.1285C298.421 82.4401 334.278 159.335 308.966 228.878Z" fill="#F0C490"/>
</mask>
<g mask="url(#mask0_103_99)">
<path d="M82.5025 67.5023C83.0249 66.0672 85.0391 66.0246 85.6216 67.4364C101.78 106.598 144.661 127.501 185.464 116.105L193.36 113.9C203.306 111.122 213.933 114.806 220.026 123.144L229.677 136.352C253.305 168.685 297.634 177.768 332.073 157.332C333.329 156.587 334.826 157.828 334.327 159.201L284.512 296.066L32.6741 204.405L82.5025 67.5023Z" fill="#FFBB6C"/>
<path d="M62.4303 122.652C79.6606 163.907 124.861 185.934 167.971 174.084L171.488 173.117C181.499 170.365 192.13 174.497 197.655 183.287C220.955 220.356 267.909 234.741 307.975 217.086L314.268 214.313L262.965 355.267L11.1272 263.605L62.4303 122.652Z" fill="#FF9A23"/>
<path d="M43.6178 174.335C53.0043 218.474 98.8967 244.451 141.572 229.779L152.057 226.175C162.184 222.693 173.353 226.939 178.61 236.269L180.815 240.183C203.839 281.045 257.14 293.047 295.455 265.996L244.152 406.95L-7.68527 315.289L43.6178 174.335Z" fill="#FF8D07"/>
</g>
</svg>
