<svg width="45" height="45" viewBox="0 0 45 45" fill="none" xmlns="http://www.w3.org/2000/svg">
<path d="M34.0372 8.91228C30.0214 4.89643 23.4818 4.89643 19.4702 8.91228L8.34342 20.0305C8.27095 20.103 8.23258 20.201 8.23258 20.3033C8.23258 20.4056 8.27095 20.5037 8.34342 20.5762L9.91651 22.1493C9.98842 22.2209 10.0858 22.261 10.1872 22.261C10.2887 22.261 10.386 22.2209 10.4579 22.1493L21.5847 11.0311C22.9659 9.6498 24.8033 8.89097 26.7558 8.89097C28.7083 8.89097 30.5457 9.6498 31.9227 11.0311C33.304 12.4123 34.0628 14.2497 34.0628 16.1979C34.0628 18.1505 33.304 19.9836 31.9227 21.3648L20.5828 32.7005L18.7454 34.5379C17.0274 36.2559 14.2351 36.2559 12.517 34.5379C11.6857 33.7066 11.2296 32.6024 11.2296 31.4258C11.2296 30.2492 11.6857 29.145 12.517 28.3137L23.7674 17.0676C24.053 16.7863 24.4282 16.6285 24.8289 16.6285H24.8332C25.2339 16.6285 25.6048 16.7863 25.8862 17.0676C26.1718 17.3533 26.3253 17.7284 26.3253 18.1291C26.3253 18.5256 26.1675 18.9008 25.8862 19.1821L16.6906 28.3691C16.6181 28.4416 16.5798 28.5397 16.5798 28.642C16.5798 28.7443 16.6181 28.8424 16.6906 28.9148L18.2637 30.4879C18.3356 30.5595 18.4329 30.5997 18.5344 30.5997C18.6359 30.5997 18.7332 30.5595 18.8051 30.4879L27.9964 21.2966C28.8448 20.4483 29.3094 19.3228 29.3094 18.1249C29.3094 16.9269 28.8405 15.7972 27.9964 14.9531C26.2443 13.201 23.3965 13.2052 21.6444 14.9531L20.553 16.0487L10.3982 26.1992C9.70903 26.8844 9.1627 27.6996 8.79095 28.5975C8.41919 29.4954 8.2294 30.4582 8.23258 31.4301C8.23258 33.4039 9.00421 35.2583 10.3982 36.6524C11.8434 38.0933 13.7363 38.8138 15.6291 38.8138C17.5219 38.8138 19.4147 38.0933 20.8557 36.6524L34.0372 23.4794C35.9769 21.5354 37.0513 18.9477 37.0513 16.1979C37.0555 13.444 35.9812 10.8563 34.0372 8.91228Z" fill="#D9D9D9"/>
</svg>
