<svg width="42" height="42" viewBox="0 0 42 42" fill="none" xmlns="http://www.w3.org/2000/svg">
<path d="M29.8078 2.85913L29.8084 2.8562C30.222 0.972098 32.901 0.960014 33.3336 2.83596L33.3561 2.94297L33.356 2.94299L33.3584 2.95338L33.4083 3.16762L33.4085 3.16837C33.7261 4.52239 34.4347 5.75314 35.4464 6.7075C36.458 7.66186 37.7279 8.29769 39.0981 8.53589L39.0985 8.53597C41.0557 8.87435 41.0596 11.6875 39.0981 12.0291C37.7208 12.2685 36.445 12.9097 35.4311 13.872C34.4171 14.8343 33.7101 16.0748 33.399 17.4376L33.3989 17.4383L33.3345 17.7222C33.3345 17.7223 33.3344 17.7224 33.3344 17.7226C32.9044 19.6019 30.2226 19.5911 29.8085 17.7062C29.8085 17.7061 29.8084 17.7059 29.8084 17.7058L29.7559 17.4635L29.7557 17.4626C29.4561 16.0939 28.7556 14.8455 27.7435 13.8767C26.7313 12.9079 25.4535 12.2626 24.0731 12.0232L24.073 12.0232C22.1196 11.6846 22.1196 8.8774 24.073 8.53887L24.0731 8.53885C25.4491 8.30006 26.7232 7.658 27.7337 6.6941C28.7443 5.73021 29.4459 4.4879 29.7494 3.12474L29.75 3.12193L29.7872 2.95011L29.7882 2.94584L29.8078 2.85913ZM0.716187 20.5042V20.5041C0.715515 18.084 1.30403 15.7002 2.43089 13.5585C3.55776 11.4168 5.18909 9.58165 7.18397 8.21157C9.17884 6.84149 11.4773 5.97768 13.8807 5.69474C16.0093 5.44417 18.1636 5.65588 20.1974 6.31149C18.8776 7.70316 18.4159 9.68938 18.7815 11.4885C19.2066 13.5801 20.7567 15.4569 23.4 15.9167C24.0065 16.0224 24.5678 16.3061 25.0125 16.7319C25.4569 17.1575 25.7647 17.7056 25.8967 18.3066C25.8968 18.3069 25.8968 18.3072 25.8969 18.3075L25.9484 18.5452C26.1789 19.7163 26.7774 20.7832 27.6569 21.5903C28.4099 22.2814 29.3351 22.7509 30.3305 22.9528C29.6509 27.2155 27.3156 31.3722 24.725 34.5915L24.7228 34.5943C23.321 36.3617 21.711 37.9535 19.9278 39.3352C19.1549 39.916 18.3956 40.3942 17.6928 40.7276C16.9992 41.0561 16.2872 41.2811 15.6236 41.2811C14.963 41.2811 14.2511 41.0562 13.5573 40.7276C12.8546 40.3942 12.0953 39.9161 11.3192 39.335C9.53767 37.9525 7.92883 36.3608 6.52727 34.5942L6.52508 34.5915C3.43555 30.7528 0.716187 25.5884 0.716187 20.5042ZM15.6236 26.1371C16.3637 26.1371 17.0966 25.9913 17.7803 25.7081C18.4641 25.4248 19.0854 25.0097 19.6087 24.4864C20.132 23.963 20.5472 23.3418 20.8304 22.658C21.1136 21.9742 21.2594 21.2414 21.2594 20.5013C21.2594 19.7612 21.1136 19.0283 20.8304 18.3445C20.5472 17.6608 20.132 17.0395 19.6087 16.5162C19.0854 15.9928 18.4641 15.5777 17.7803 15.2945C17.0966 15.0112 16.3637 14.8655 15.6236 14.8655C14.1289 14.8655 12.6954 15.4592 11.6385 16.5162C10.5816 17.5731 9.98779 19.0066 9.98779 20.5013C9.98779 21.996 10.5816 23.4295 11.6385 24.4864C12.6954 25.5433 14.1289 26.1371 15.6236 26.1371Z" stroke="#D9D9D9"/>
</svg>
