<svg width="3854" height="1620" viewBox="0 0 3854 1620" fill="none" xmlns="http://www.w3.org/2000/svg">
<path d="M1774.41 32.9455C1792.81 16.2491 1816.76 7 1841.61 7H1933.57L1491.5 409L1933.57 853H1844.49C1817.93 853 1792.46 842.433 1773.7 823.631L1378.51 427.556C1368.43 417.453 1368.84 400.976 1379.41 391.385L1774.41 32.9455Z" fill="#FF9A23"/>
<path d="M2131.76 26.5446C2150.24 9.47793 2174.47 0 2199.62 0H2282.07L1843.5 418L2282.07 846H2200.3C2174.74 846 2150.15 836.213 2131.58 818.65L1727.43 436.378C1716.92 426.435 1717.02 409.671 1727.65 399.852L2131.76 26.5446Z" fill="#FF9A23"/>
<path d="M1205 0H2443C2443 51.9148 2400.91 94 2349 94H1299C1247.09 94 1205 51.9148 1205 0Z" fill="#FF9A23"/>
<path d="M1274 184H2346C2346 235.915 2303.91 278 2252 278H1368C1316.09 278 1274 235.915 1274 184Z" fill="#FF9A23"/>
<path d="M42 1445V955H122.5V1150.3L322.7 955H435.4L198.8 1183.9L435.4 1445H328.3L122.5 1215.4V1445H42ZM670.644 1379.2C685.577 1379.2 699.344 1376.63 711.944 1371.5C725.01 1365.9 736.21 1358.43 745.544 1349.1C754.877 1339.77 762.11 1328.8 767.244 1316.2C772.844 1303.6 775.644 1289.83 775.644 1274.9C775.644 1259.97 773.077 1245.97 767.944 1232.9C762.81 1219.83 755.577 1208.63 746.244 1199.3C736.91 1189.5 725.71 1182.03 712.644 1176.9C700.044 1171.3 686.044 1168.5 670.644 1168.5C655.71 1168.5 641.944 1171.3 629.344 1176.9C616.744 1182.5 605.777 1190.2 596.444 1200C587.11 1209.33 579.644 1220.53 574.044 1233.6C568.91 1246.2 566.344 1259.97 566.344 1274.9C566.344 1289.37 568.91 1303.13 574.044 1316.2C579.644 1328.8 587.11 1339.77 596.444 1349.1C605.777 1358.43 616.744 1365.9 629.344 1371.5C642.41 1376.63 656.177 1379.2 670.644 1379.2ZM777.044 1445V1411.4C760.71 1426.8 742.977 1437.77 723.844 1444.3C704.71 1450.83 683.944 1454.1 661.544 1454.1C635.877 1454.1 612.544 1449.43 591.544 1440.1C570.544 1430.77 552.344 1418.17 536.944 1402.3C522.01 1385.97 510.344 1367.07 501.944 1345.6C493.544 1323.67 489.344 1300.1 489.344 1274.9C489.344 1249.23 493.777 1225.43 502.644 1203.5C511.977 1181.57 524.577 1162.43 540.444 1146.1C556.777 1129.77 575.91 1116.93 597.844 1107.6C620.244 1098.27 644.277 1093.6 669.944 1093.6C695.61 1093.6 719.41 1098.27 741.344 1107.6C763.744 1116.47 783.11 1128.83 799.444 1144.7C816.244 1160.57 829.31 1179.47 838.644 1201.4C848.444 1223.33 853.344 1246.9 853.344 1272.1V1445H777.044ZM1132.37 1445V1249C1132.37 1226.13 1126.54 1207 1114.87 1191.6C1103.67 1175.73 1085.7 1167.8 1060.97 1167.8C1039.97 1167.8 1022.94 1174.33 1009.87 1187.4C996.804 1200.47 990.27 1221 990.27 1249V1445H912.57V1249.7C912.57 1225.9 916.537 1204.43 924.47 1185.3C932.87 1165.7 943.837 1149.13 957.37 1135.6C970.904 1122.07 986.304 1111.57 1003.57 1104.1C1021.3 1096.63 1039.27 1092.9 1057.47 1092.9C1080.8 1092.9 1102.04 1097.1 1121.17 1105.5C1140.3 1113.43 1156.87 1126.97 1170.87 1146.1C1184.87 1126.97 1201.44 1113.43 1220.57 1105.5C1239.7 1097.1 1260.94 1092.9 1284.27 1092.9C1302.47 1092.9 1320.2 1096.63 1337.47 1104.1C1355.2 1111.57 1370.84 1122.07 1384.37 1135.6C1397.9 1149.13 1408.64 1165.7 1416.57 1185.3C1424.97 1204.43 1429.17 1225.9 1429.17 1249.7V1445H1351.47V1249C1351.47 1221 1344.94 1200.47 1331.87 1187.4C1318.8 1174.33 1301.77 1167.8 1280.77 1167.8C1256.04 1167.8 1237.84 1175.73 1226.17 1191.6C1214.97 1207 1209.37 1226.13 1209.37 1249V1445H1132.37ZM1663.22 1379.2C1678.16 1379.2 1691.92 1376.63 1704.52 1371.5C1717.59 1365.9 1728.79 1358.43 1738.12 1349.1C1747.46 1339.77 1754.69 1328.8 1759.82 1316.2C1765.42 1303.6 1768.22 1289.83 1768.22 1274.9C1768.22 1259.97 1765.66 1245.97 1760.52 1232.9C1755.39 1219.83 1748.16 1208.63 1738.82 1199.3C1729.49 1189.5 1718.29 1182.03 1705.22 1176.9C1692.62 1171.3 1678.62 1168.5 1663.22 1168.5C1648.29 1168.5 1634.52 1171.3 1621.92 1176.9C1609.32 1182.5 1598.36 1190.2 1589.02 1200C1579.69 1209.33 1572.22 1220.53 1566.62 1233.6C1561.49 1246.2 1558.92 1259.97 1558.92 1274.9C1558.92 1289.37 1561.49 1303.13 1566.62 1316.2C1572.22 1328.8 1579.69 1339.77 1589.02 1349.1C1598.36 1358.43 1609.32 1365.9 1621.92 1371.5C1634.99 1376.63 1648.76 1379.2 1663.22 1379.2ZM1769.62 1445V1411.4C1753.29 1426.8 1735.56 1437.77 1716.42 1444.3C1697.29 1450.83 1676.52 1454.1 1654.12 1454.1C1628.46 1454.1 1605.12 1449.43 1584.12 1440.1C1563.12 1430.77 1544.92 1418.17 1529.52 1402.3C1514.59 1385.97 1502.92 1367.07 1494.52 1345.6C1486.12 1323.67 1481.92 1300.1 1481.92 1274.9C1481.92 1249.23 1486.36 1225.43 1495.22 1203.5C1504.56 1181.57 1517.16 1162.43 1533.02 1146.1C1549.36 1129.77 1568.49 1116.93 1590.42 1107.6C1612.82 1098.27 1636.86 1093.6 1662.52 1093.6C1688.19 1093.6 1711.99 1098.27 1733.92 1107.6C1756.32 1116.47 1775.69 1128.83 1792.02 1144.7C1808.82 1160.57 1821.89 1179.47 1831.22 1201.4C1841.02 1223.33 1845.92 1246.9 1845.92 1272.1V1445H1769.62ZM2082.95 1379.2C2097.88 1379.2 2111.65 1376.63 2124.25 1371.5C2137.32 1365.9 2148.52 1358.43 2157.85 1349.1C2167.18 1339.77 2174.42 1328.8 2179.55 1316.2C2185.15 1303.6 2187.95 1289.83 2187.95 1274.9C2187.95 1259.97 2185.38 1245.97 2180.25 1232.9C2175.12 1219.83 2167.88 1208.63 2158.55 1199.3C2149.22 1189.5 2138.02 1182.03 2124.95 1176.9C2112.35 1171.3 2098.35 1168.5 2082.95 1168.5C2068.02 1168.5 2054.25 1171.3 2041.65 1176.9C2029.05 1182.5 2018.08 1190.2 2008.75 1200C1999.42 1209.33 1991.95 1220.53 1986.35 1233.6C1981.22 1246.2 1978.65 1259.97 1978.65 1274.9C1978.65 1289.37 1981.22 1303.13 1986.35 1316.2C1991.95 1328.8 1999.42 1339.77 2008.75 1349.1C2018.08 1358.43 2029.05 1365.9 2041.65 1371.5C2054.72 1376.63 2068.48 1379.2 2082.95 1379.2ZM2189.35 1445V1411.4C2173.02 1426.8 2155.28 1437.77 2136.15 1444.3C2117.02 1450.83 2096.25 1454.1 2073.85 1454.1C2048.18 1454.1 2024.85 1449.43 2003.85 1440.1C1982.85 1430.77 1964.65 1418.17 1949.25 1402.3C1934.32 1385.97 1922.65 1367.07 1914.25 1345.6C1905.85 1323.67 1901.65 1300.1 1901.65 1274.9C1901.65 1249.23 1906.08 1225.43 1914.95 1203.5C1924.28 1181.57 1936.88 1162.43 1952.75 1146.1C1969.08 1129.77 1988.22 1116.93 2010.15 1107.6C2032.55 1098.27 2056.58 1093.6 2082.25 1093.6C2107.92 1093.6 2131.72 1098.27 2153.65 1107.6C2176.05 1116.47 2195.42 1128.83 2211.75 1144.7C2228.55 1160.57 2241.62 1179.47 2250.95 1201.4C2260.75 1223.33 2265.65 1246.9 2265.65 1272.1V1445H2189.35ZM2328.38 1104.1H2405.38V1445H2328.38V1104.1ZM2319.97 1015.2C2319.97 1001.67 2324.41 990.467 2333.28 981.6C2342.14 972.267 2353.34 967.6 2366.88 967.6C2380.41 967.6 2391.61 972.267 2400.48 981.6C2409.81 990.467 2414.48 1001.67 2414.48 1015.2C2414.48 1028.73 2409.81 1040.17 2400.48 1049.5C2391.61 1058.37 2380.41 1062.8 2366.88 1062.8C2353.34 1062.8 2342.14 1058.37 2333.28 1049.5C2324.41 1040.17 2319.97 1028.73 2319.97 1015.2ZM2479.7 1445V955H2560.2V1150.3L2760.4 955H2873.1L2636.5 1183.9L2873.1 1445H2766L2560.2 1215.4V1445H2479.7ZM2937.54 955H3014.54V1445H2937.54V955ZM3081.01 1289.6V1104.1H3158.01V1276.3C3158.01 1290.77 3159.65 1304.53 3162.91 1317.6C3166.18 1330.2 3171.31 1341.17 3178.31 1350.5C3185.31 1359.83 3194.41 1367.3 3205.61 1372.9C3217.28 1378.03 3231.28 1380.6 3247.61 1380.6C3263.95 1380.6 3277.71 1378.03 3288.91 1372.9C3300.58 1367.3 3309.91 1359.83 3316.91 1350.5C3323.91 1341.17 3329.05 1330.2 3332.31 1317.6C3335.58 1304.53 3337.21 1290.77 3337.21 1276.3V1104.1H3414.21V1289.6C3414.21 1312.47 3410.25 1333.93 3402.31 1354C3394.38 1374.07 3382.95 1391.8 3368.01 1407.2C3353.55 1422.13 3336.05 1434.03 3315.51 1442.9C3295.45 1451.3 3272.81 1455.5 3247.61 1455.5C3222.41 1455.5 3199.55 1451.3 3179.01 1442.9C3158.95 1434.03 3141.45 1422.13 3126.51 1407.2C3112.05 1391.8 3100.85 1374.07 3092.91 1354C3084.98 1333.93 3081.01 1312.47 3081.01 1289.6ZM3554.5 1272.8C3554.5 1287.27 3556.83 1301.03 3561.5 1314.1C3566.16 1327.17 3572.7 1338.6 3581.1 1348.4C3589.96 1358.2 3600.46 1366.13 3612.6 1372.2C3625.2 1377.8 3639.2 1380.6 3654.6 1380.6C3669.53 1380.6 3683.06 1378.03 3695.2 1372.9C3707.8 1367.77 3718.53 1360.77 3727.4 1351.9C3736.26 1343.03 3743.26 1332.3 3748.4 1319.7C3753.53 1307.1 3756.1 1293.57 3756.1 1279.1C3756.1 1265.1 3753.76 1252.03 3749.1 1239.9C3744.43 1227.3 3737.2 1216.57 3727.4 1207.7C3718.06 1198.37 3706.4 1191.13 3692.4 1186C3678.4 1180.87 3662.06 1178.3 3643.4 1178.3H3554.5V1272.8ZM3477.5 955H3554.5V1103.4H3644.1C3675.36 1103.4 3702.66 1108.07 3726 1117.4C3749.8 1126.27 3769.63 1138.63 3785.5 1154.5C3801.36 1170.37 3813.26 1189.03 3821.2 1210.5C3829.13 1231.97 3833.1 1254.83 3833.1 1279.1C3833.1 1304.77 3828.43 1328.33 3819.1 1349.8C3810.23 1371.27 3797.86 1389.93 3782 1405.8C3766.13 1421.2 3747.23 1433.33 3725.3 1442.2C3703.83 1451.07 3680.5 1455.5 3655.3 1455.5C3630.1 1455.5 3606.53 1451.07 3584.6 1442.2C3563.13 1433.33 3544.46 1421.2 3528.6 1405.8C3512.73 1389.93 3500.13 1371.27 3490.8 1349.8C3481.93 1328.33 3477.5 1304.77 3477.5 1279.1V955Z" fill="#FF9A23"/>
</svg>
