<svg width="543" height="249" viewBox="0 0 543 249" fill="none" xmlns="http://www.w3.org/2000/svg">
<g clip-path="url(#clip0_578_13112)">
<path d="M255.804 189.996L255.834 189.998L255.804 189.996ZM539.292 93.3066L539.314 93.3291C541.593 95.7303 543.001 99.0222 543.001 102.639C543.001 106.25 541.599 109.535 539.329 111.935L539.294 111.972C537.006 114.362 533.865 115.839 530.416 115.839C526.972 115.839 523.839 114.37 521.552 111.988L521.516 111.951C520.55 110.934 519.741 109.755 519.128 108.46H451.583V186.187C451.583 190.461 449.931 194.325 447.264 197.125C444.596 199.923 440.908 201.655 436.835 201.655C433.986 201.655 431.261 200.788 428.941 199.244C426.634 197.711 424.728 195.491 423.504 192.777L386.416 110.315C386.164 109.753 385.76 109.287 385.267 108.959C384.787 108.64 384.216 108.46 383.613 108.46C382.745 108.46 381.975 108.814 381.43 109.385L381.408 109.407C380.865 109.977 380.528 110.786 380.528 111.695V183.224C380.528 188.308 378.562 192.915 375.384 196.248C372.205 199.582 367.813 201.644 362.963 201.644C359.431 201.644 356.05 200.516 353.203 198.518C350.38 196.54 348.101 193.695 346.744 190.248L317.511 116.18L282.324 185.338C279.694 190.506 275.783 194.695 271.136 197.523C266.65 200.255 261.467 201.727 256.079 201.597L255.807 201.605C255.72 201.605 255.708 201.596 255.445 201.581L255.054 201.562C242.488 200.889 231.074 195.254 222.609 186.504C214.133 177.742 208.589 165.848 207.778 152.684C207.7 151.405 207.66 150.254 207.66 149.227C207.66 135.346 212.822 122.717 221.244 113.335C229.161 104.515 239.964 98.5752 252.075 97.1656C252.7 95.7415 253.56 94.4504 254.605 93.3467L254.64 93.3083C256.93 90.9182 260.069 89.4413 263.518 89.4413C266.961 89.4413 270.094 90.9118 272.383 93.2922L272.397 93.3066L272.418 93.3291C274.697 95.7303 276.106 99.0222 276.106 102.639C276.106 106.25 274.705 109.535 272.433 111.935L272.397 111.972C270.108 114.362 266.967 115.839 263.518 115.839C260.075 115.839 256.942 114.37 254.655 111.988L254.618 111.951C253.739 111.025 252.99 109.966 252.4 108.805C243.34 110.08 235.265 114.628 229.297 121.279C222.754 128.569 218.745 138.4 218.745 149.227C218.745 150.247 218.769 151.16 218.818 151.958C219.447 162.176 223.763 171.421 230.36 178.242C236.969 185.072 245.85 189.471 255.596 189.987L255.807 189.998C255.743 189.991 255.671 189.983 255.807 189.983C256.012 189.983 256.213 189.996 256.412 190.019C259.682 190.08 262.843 189.168 265.597 187.491C268.503 185.721 270.947 183.108 272.584 179.89L313.275 99.916C314.709 97.0951 318.053 96.0299 320.742 97.5324C321.921 98.1908 322.78 99.2368 323.25 100.438L356.961 185.843C357.459 187.11 358.302 188.159 359.35 188.893C360.376 189.613 361.628 190.02 362.963 190.02C364.753 190.02 366.375 189.258 367.549 188.029C368.72 186.799 369.446 185.099 369.446 183.222V111.693C369.446 107.616 371.031 103.91 373.595 101.21L373.628 101.177C376.202 98.4951 379.731 96.8372 383.613 96.8372C386.35 96.8372 388.968 97.6702 391.199 99.1519C393.417 100.627 395.247 102.758 396.417 105.364L433.505 187.827C433.806 188.494 434.286 189.046 434.874 189.437C435.445 189.817 436.122 190.03 436.837 190.03C437.851 190.03 438.768 189.599 439.431 188.905C440.092 188.212 440.502 187.249 440.502 186.185V102.649C440.502 99.4387 442.982 96.8372 446.044 96.8372H519.121C519.732 95.5413 520.538 94.3623 521.504 93.3435L521.539 93.305C523.827 90.915 526.966 89.4381 530.417 89.4381C533.859 89.4381 536.993 90.9086 539.28 93.289L539.295 93.3035L539.292 93.3066ZM536.355 102.344C536.274 100.563 535.571 99.0398 534.502 98.021L534.412 97.9345C533.344 96.9157 531.83 96.3262 530.131 96.4111C528.434 96.496 526.98 97.2329 526.008 98.3542L525.927 98.4487C524.956 99.5684 524.394 101.157 524.473 102.937C524.554 104.718 525.257 106.242 526.326 107.261L526.415 107.346C527.484 108.364 528.998 108.954 530.697 108.871C532.395 108.786 533.848 108.049 534.82 106.927L534.901 106.835C535.872 105.713 536.434 104.127 536.355 102.346V102.344ZM323.963 165.242L323.985 165.265C326.264 167.664 327.672 170.956 327.672 174.575C327.672 178.184 326.272 181.471 324 183.869L323.963 183.908C321.675 186.298 318.534 187.774 315.085 187.774C311.642 187.774 308.509 186.304 306.222 183.922L306.185 183.885C303.906 181.484 302.498 178.192 302.498 174.575C302.498 170.964 303.9 167.679 306.17 165.279L306.205 165.242C308.495 162.852 311.634 161.375 315.084 161.375C318.527 161.375 321.66 162.844 323.948 165.226L323.962 165.241L323.963 165.242ZM39.3506 92.1613C38.5486 95.2449 35.5163 97.0647 32.5757 96.2253C29.6351 95.3843 27.9013 92.2046 28.7017 89.1209C30.0918 83.8011 45.7557 29.6302 45.8 29.4748L45.8642 29.2474C48.5268 21.2652 52.8988 12.1345 58.2805 6.42216C61.4655 3.04059 65.0859 0.716254 69.0943 0.14278C73.3975 -0.475547 77.7358 0.874841 81.9107 4.96925V4.99168C86.3056 9.30234 90.6394 16.9914 94.6233 29.2922C104.259 59.06 113.078 92.3071 120.397 119.901C126.701 143.67 131.878 163.186 135.453 172.387C142.179 189.702 148.642 191.005 148.66 191.01L148.964 191.1C148.987 191.106 157.209 193.681 160.588 180.439C165.21 162.325 163.939 135.403 163.936 135.326C163.805 132.13 166.17 129.426 169.217 129.288C172.265 129.149 174.843 131.628 174.975 134.826C174.979 134.909 176.336 163.624 171.281 183.437C165.445 206.313 148.776 202.975 146.326 202.352L146.325 202.36C146.289 202.352 134.156 199.814 125.193 176.747C121.454 167.118 116.175 147.221 109.748 122.99C102.498 95.6502 93.7602 62.7107 84.1471 33.0166C80.7864 22.6332 77.4991 16.5012 74.3904 13.448L74.3797 13.4592C72.8903 11.9983 71.627 11.4761 70.5669 11.6283C69.2134 11.8221 67.7026 12.913 66.1598 14.5501C62.0292 18.9361 58.5172 26.4056 56.2976 33.0615C55.2161 36.8035 40.6383 87.2387 39.3506 92.1629V92.1613ZM61.4074 114.314L32.8415 114.386L10.4104 193.352C9.57174 196.301 6.6128 197.98 3.80051 197.102C0.988213 196.223 -0.6127 193.118 0.224419 190.169L24.9042 103.29L61.4028 103.198C61.9971 101.866 62.8006 100.656 63.7645 99.6165C65.9902 97.2201 69.0637 95.7351 72.4565 95.7351C75.8477 95.7351 78.9228 97.2201 81.1485 99.6165C83.336 101.973 84.6879 105.204 84.6879 108.752C84.6879 112.3 83.3344 115.531 81.1485 117.886C78.9212 120.284 75.8493 121.767 72.4565 121.767C69.0652 121.767 65.9917 120.284 63.7645 117.886C62.8021 116.85 62.0017 115.643 61.4059 114.315L61.4074 114.314ZM168.673 93.1481C172.064 93.1481 175.138 94.6314 177.365 97.0294C179.553 99.3858 180.905 102.617 180.905 106.165C180.905 109.712 179.551 112.944 177.365 115.299C175.138 117.697 172.066 119.18 168.673 119.18C165.282 119.18 162.207 117.697 159.981 115.299C157.794 112.944 156.442 109.713 156.442 106.165C156.442 102.615 157.795 99.3858 159.981 97.0294C162.207 94.6314 165.282 93.1481 168.673 93.1481ZM321.027 174.28C320.946 172.501 320.244 170.976 319.174 169.957L319.086 169.872C318.016 168.853 316.504 168.264 314.805 168.347C313.107 168.432 311.654 169.169 310.683 170.29L310.602 170.383C309.629 171.504 309.066 173.092 309.147 174.871C309.228 176.654 309.931 178.176 311 179.195L311.09 179.281C312.16 180.3 313.674 180.89 315.371 180.805C317.069 180.72 318.522 179.983 319.494 178.862L319.575 178.767C320.546 177.646 321.108 176.06 321.029 174.279L321.027 174.28ZM269.457 102.344C269.376 100.563 268.674 99.0398 267.605 98.021L267.516 97.9345C266.447 96.9157 264.934 96.3262 263.236 96.4111C261.537 96.496 260.084 97.2329 259.113 98.3542L259.032 98.4487C258.059 99.5684 257.496 101.157 257.577 102.937C257.658 104.718 258.361 106.242 259.43 107.261L259.521 107.346C260.59 108.364 262.104 108.954 263.801 108.871C265.501 108.786 266.952 108.049 267.924 106.927L268.005 106.835C268.976 105.713 269.538 104.127 269.459 102.346L269.457 102.344ZM174.613 105.869C174.533 104.089 173.829 102.564 172.761 101.545L172.671 101.46C171.602 100.441 170.089 99.8503 168.391 99.9352C166.693 100.02 165.239 100.757 164.268 101.878L164.187 101.971C163.215 103.093 162.653 104.68 162.732 106.46C162.813 108.241 163.516 109.764 164.585 110.783L164.674 110.868C165.743 111.888 167.257 112.478 168.954 112.391C170.653 112.308 172.106 111.57 173.077 110.45L173.158 110.355C174.131 109.234 174.693 107.648 174.611 105.867L174.613 105.869ZM78.2094 108.752C78.2094 106.971 77.5754 105.412 76.555 104.34L76.4695 104.251C75.4475 103.179 73.9642 102.516 72.2625 102.516C70.5638 102.516 69.0775 103.181 68.0555 104.251L67.97 104.34C66.948 105.412 66.3156 106.969 66.3156 108.752C66.3156 110.537 66.9495 112.092 67.97 113.164L68.0555 113.253C69.0775 114.325 70.5638 114.988 72.2625 114.988C73.9642 114.988 75.4475 114.323 76.4695 113.253L76.555 113.164C77.577 112.092 78.2094 110.537 78.2094 108.752Z" fill="white"/>
</g>
<defs>
<clipPath id="clip0_578_13112">
<rect width="543" height="249" fill="white"/>
</clipPath>
</defs>
</svg>
