<svg width="32" height="32" viewBox="0 0 32 32" fill="none" xmlns="http://www.w3.org/2000/svg">
<path d="M15.0888 15.8414L14.9943 16.4593L15.6179 16.4157L25.9949 15.6908C25.9981 15.7665 26 15.8416 26 15.917C26 21.6698 21.3359 26.334 15.583 26.334C9.83013 26.334 5.16602 21.6708 5.16602 15.917C5.16602 10.1649 9.82784 5.50127 15.5816 5.49995C15.9419 5.50355 16.3018 5.52519 16.6598 5.56477L15.0888 15.8414ZM28.1213 12.6839L18.3777 13.3646L19.8539 3.70878C21.997 4.14327 23.9536 5.24306 25.4408 6.85763C26.9281 8.47221 27.8639 10.5123 28.1213 12.6839Z" stroke="#D9D9D9"/>
</svg>
