<svg width="32" height="32" viewBox="0 0 32 32" fill="none" xmlns="http://www.w3.org/2000/svg">
<path d="M10.0102 7.79842C10.0102 6.1149 10.679 4.50032 11.8694 3.30989C13.0599 2.11946 14.6744 1.45068 16.358 1.45068C18.0415 1.45068 19.6561 2.11946 20.8465 3.30989C22.0369 4.50032 22.7057 6.1149 22.7057 7.79842C22.7057 9.48194 22.0369 11.0965 20.8465 12.2869C19.6561 13.4774 18.0415 14.1462 16.358 14.1462C14.6744 14.1462 13.0599 13.4774 11.8694 12.2869C10.679 11.0965 10.0102 9.48194 10.0102 7.79842ZM3.81118 20.9306C5.32267 19.4192 7.37267 18.57 9.51023 18.57H23.2057C25.3433 18.57 27.3933 19.4192 28.9048 20.9306C30.4162 22.4421 31.2654 24.4921 31.2654 26.6297C31.2654 27.8592 30.777 29.0383 29.9076 29.9077C29.0382 30.7771 27.8591 31.2655 26.6296 31.2655H6.08636C4.85687 31.2655 3.67774 30.7771 2.80836 29.9077C1.93898 29.0383 1.45056 27.8592 1.45056 26.6297C1.45056 24.4921 2.2997 22.4421 3.81118 20.9306Z" stroke="#D9D9D9"/>
</svg>
